# xmcd
#
# Track frame offsets:
#	150
#	14762
#	31342
#	44325
#	60787
#	73937
#	89915
#	99755
#	116060
#	126680
#	140462
#	159707
#	176395
#	189115
#	201372
#	214027
#	229142
#	241592
#	256362
#	268605
#	285292
#	303912
#
# Disc length: 4246
#
# Revision: 5
# Processed by: cddbd v1.5.1PL0 Copyright (c) Steve Scherf et al.
# Submitted via: ExactAudioCopy v0.90b4
# Normalized: r4:TDELIM( - ),TSWAP
#
DISCID=3a109416
DTITLE=Time Life Music - Contemporary Country - The Early '80s - Hot Hits
DYEAR=1900
DGENRE=Country
TTITLE0=Rosanne Cash - My Baby Thinks He's A Train
TTITLE1=John Anderson - I'm Just An Old Chunk Of Coal (But I'm Gonna Be A Diamond Someday)
TTITLE2=The Oak Ridge Boys - Bobbie Sue
TTITLE3=Don Williams - Love Is On A Roll
TTITLE4=George Jones - Tennessee Whiskey
TTITLE5=Willie Nelson - Always On My Mind
TTITLE6=Waylon Jennings - Theme From The Dukes Of Hazzard (Good Ol' Boys)
TTITLE7=T.G. Sheppard - Party Time
TTITLE8=Johnny Lee - Pickin' Up Strangers
TTITLE9=Charley Pride - You Win Again
TTITLE10=Merle Haggard - Are The Good Times Really Over (I Wish A Buck Was Still Silver)
TTITLE11=Alabama - Mountain Music
TTITLE12=Elvis Presley - Guitar Man
TTITLE13=John Conlee - Common Man
TTITLE14=Ronnie McDowell - Older Women
TTITLE15=The Bellamy Brothers - Dancin' Cowboys
TTITLE16=Dolly Parton - 9 To 5
TTITLE17=Earl Thomas Conley - Fire And Smoke
TTITLE18=George Jones And Tammy Wynette - Two Story House
TTITLE19=Ronnie Milsap - Any Day Now
TTITLE20=Juice Newton - The Sweetest Thing (I've Ever Known)
TTITLE21=Razzy Bailey - She Left Love All Over Me
EXTD=
EXTT0=Cash, Rosanne
EXTT1=Anderson, John
EXTT2=Oak Ridge Boys
EXTT3=Williams, Don
EXTT4=Jones, George
EXTT5=Nelson, Willie
EXTT6=Jennings, Waylon
EXTT7=Sheppard, T.G.
EXTT8=Lee, Johnny
EXTT9=Pride, Charley
EXTT10=Haggard, Merle
EXTT11=Alabama
EXTT12=Presley, Elvis
EXTT13=Conlee, John
EXTT14=McDowell, Ronnie
EXTT15=Bellamy Brothers
EXTT16=Parton, Dolly
EXTT17=Conley, Earl Thomas
EXTT18=Jones, George and Wynette, Tammy
EXTT19=Milsap, Ronnie
EXTT20=Newton, Juice
EXTT21=Baily, Razzy
PLAYORDER=
